# Blender 3.4.1
# www.blender.org
mtllib box.mtl
o Cube
v 0.500000 0.350000 -0.500000
v 0.500000 -0.500000 -0.500000
v 0.500000 0.350000 0.500000
v 0.500000 -0.500000 0.500000
v -0.500000 0.350000 -0.500000
v -0.500000 -0.500000 -0.500000
v -0.500000 0.350000 0.500000
v -0.500000 -0.500000 0.500000
v 0.320088 0.167000 -0.320088
v 0.320088 0.167000 0.320088
v -0.320088 0.167000 -0.320088
v -0.320088 0.167000 0.320088
v 0.431857 0.450000 0.431857
v -0.431857 0.450000 0.431857
v 0.431857 0.450000 -0.431857
v -0.431857 0.450000 -0.431857
vn -0.0000 0.5631 -0.8264
vn -0.0000 -0.0000 1.0000
vn -1.0000 -0.0000 -0.0000
vn -0.0000 -1.0000 -0.0000
vn 1.0000 -0.0000 -0.0000
vn -0.0000 -0.0000 -1.0000
vn -0.0000 1.0000 -0.0000
vn -0.0000 0.5631 0.8264
vn -0.8264 0.5631 -0.0000
vn 0.8264 0.5631 -0.0000
vn -0.0000 0.3673 -0.9301
vn -0.9301 0.3673 -0.0000
vn 0.9301 0.3673 -0.0000
vn -0.0000 0.3673 0.9301
vt 0.625000 0.500000
vt 0.375000 0.500000
vt 0.625000 0.750000
vt 0.375000 0.750000
vt 0.625000 0.250000
vt 0.125000 0.500000
vt 0.375000 0.250000
vt 0.625000 1.000000
vt 0.625000 0.000000
vt 0.375000 1.000000
vt 0.375000 0.000000
vt 0.125000 0.750000
vt 0.669978 0.544978
vt 0.669978 0.705022
vt 0.830022 0.544978
vt 0.830022 0.705022
vt 0.625000 0.750000
vt 0.625000 1.000000
vt 0.625000 0.000000
vt 0.875000 0.750000
vt 0.625000 0.500000
vt 0.625000 0.250000
vt 0.875000 0.500000
s 0
usemtl Box
f 1/1/1 5/5/1 16/22/1 15/21/1
f 4/4/2 3/3/2 7/8/2 8/10/2
f 8/11/3 7/9/3 5/5/3 6/7/3
f 6/6/4 2/2/4 4/4/4 8/12/4
f 2/2/5 1/1/5 3/3/5 4/4/5
f 6/7/6 5/5/6 1/1/6 2/2/6
f 9/13/7 11/15/7 12/16/7 10/14/7
f 7/8/8 3/3/8 13/17/8 14/18/8
f 5/5/9 7/9/9 14/19/9 16/22/9
f 3/3/10 1/1/10 15/21/10 13/17/10
f 10/14/11 12/16/11 14/20/11 13/17/11
f 9/13/12 10/14/12 13/17/12 15/21/12
f 12/16/13 11/15/13 16/23/13 14/20/13
f 11/15/14 9/13/14 15/21/14 16/23/14
