# Blender 3.4.1
# www.blender.org
mtllib table.mtl
o Cube
v -0.500000 0.350000 0.500000
v -0.500000 0.450000 0.500000
v -0.500000 0.350000 -0.500000
v -0.500000 0.450000 -0.500000
v 0.500000 0.350000 0.500000
v 0.500000 0.450000 0.500000
v 0.500000 0.350000 -0.500000
v 0.500000 0.450000 -0.500000
vn -1.0000 -0.0000 -0.0000
vn -0.0000 -0.0000 -1.0000
vn 1.0000 -0.0000 -0.0000
vn -0.0000 -0.0000 1.0000
vn -0.0000 -1.0000 -0.0000
vn -0.0000 1.0000 -0.0000
vt 0.375000 0.000000
vt 0.375000 1.000000
vt 0.125000 0.750000
vt 0.625000 0.000000
vt 0.625000 1.000000
vt 0.875000 0.750000
vt 0.375000 0.250000
vt 0.125000 0.500000
vt 0.625000 0.250000
vt 0.875000 0.500000
vt 0.375000 0.750000
vt 0.625000 0.750000
vt 0.375000 0.500000
vt 0.625000 0.500000
s 0
usemtl Wood
f 1/1/1 2/4/1 4/9/1 3/7/1
f 3/7/2 4/9/2 8/14/2 7/13/2
f 7/13/3 8/14/3 6/12/3 5/11/3
f 5/11/4 6/12/4 2/5/4 1/2/4
f 3/8/5 7/13/5 5/11/5 1/3/5
f 8/14/6 4/10/6 2/6/6 6/12/6
o Cube.001
v -0.450000 -0.350044 0.449695
v -0.450000 0.349956 0.450305
v -0.450000 -0.349956 0.349695
v -0.450000 0.350044 0.350305
v -0.350000 -0.350044 0.449695
v -0.350000 0.349956 0.450305
v -0.350000 -0.349956 0.349695
v -0.350000 0.350044 0.350305
vn -1.0000 -0.0000 -0.0000
vn -0.0000 0.0009 -1.0000
vn 1.0000 -0.0000 -0.0000
vn -0.0000 -0.0009 1.0000
vn -0.0000 -1.0000 -0.0009
vn -0.0000 1.0000 0.0009
vt 0.375000 0.000000
vt 0.375000 1.000000
vt 0.125000 0.750000
vt 0.625000 0.000000
vt 0.625000 1.000000
vt 0.875000 0.750000
vt 0.375000 0.250000
vt 0.125000 0.500000
vt 0.625000 0.250000
vt 0.875000 0.500000
vt 0.375000 0.750000
vt 0.625000 0.750000
vt 0.375000 0.500000
vt 0.625000 0.500000
s 0
usemtl Wood
f 9/15/7 10/18/7 12/23/7 11/21/7
f 11/21/8 12/23/8 16/28/8 15/27/8
f 15/27/9 16/28/9 14/26/9 13/25/9
f 13/25/10 14/26/10 10/19/10 9/16/10
f 11/22/11 15/27/11 13/25/11 9/17/11
f 16/28/12 12/24/12 10/20/12 14/26/12
o Cube.002
v 0.350000 -0.350044 -0.350305
v 0.350000 0.349956 -0.349695
v 0.350000 -0.349956 -0.450305
v 0.350000 0.350044 -0.449695
v 0.450000 -0.350044 -0.350305
v 0.450000 0.349956 -0.349695
v 0.450000 -0.349956 -0.450305
v 0.450000 0.350044 -0.449695
vn -1.0000 -0.0000 -0.0000
vn -0.0000 0.0009 -1.0000
vn 1.0000 -0.0000 -0.0000
vn -0.0000 -0.0009 1.0000
vn -0.0000 -1.0000 -0.0009
vn -0.0000 1.0000 0.0009
vt 0.375000 0.000000
vt 0.375000 1.000000
vt 0.125000 0.750000
vt 0.625000 0.000000
vt 0.625000 1.000000
vt 0.875000 0.750000
vt 0.375000 0.250000
vt 0.125000 0.500000
vt 0.625000 0.250000
vt 0.875000 0.500000
vt 0.375000 0.750000
vt 0.625000 0.750000
vt 0.375000 0.500000
vt 0.625000 0.500000
s 0
usemtl Wood
f 17/29/13 18/32/13 20/37/13 19/35/13
f 19/35/14 20/37/14 24/42/14 23/41/14
f 23/41/15 24/42/15 22/40/15 21/39/15
f 21/39/16 22/40/16 18/33/16 17/30/16
f 19/36/17 23/41/17 21/39/17 17/31/17
f 24/42/18 20/38/18 18/34/18 22/40/18
o Cube.003
v 0.350000 -0.350044 0.449695
v 0.350000 0.349956 0.450305
v 0.350000 -0.349956 0.349695
v 0.350000 0.350044 0.350305
v 0.450000 -0.350044 0.449695
v 0.450000 0.349956 0.450305
v 0.450000 -0.349956 0.349695
v 0.450000 0.350044 0.350305
vn -1.0000 -0.0000 -0.0000
vn -0.0000 0.0009 -1.0000
vn 1.0000 -0.0000 -0.0000
vn -0.0000 -0.0009 1.0000
vn -0.0000 -1.0000 -0.0009
vn -0.0000 1.0000 0.0009
vt 0.375000 0.000000
vt 0.375000 1.000000
vt 0.125000 0.750000
vt 0.625000 0.000000
vt 0.625000 1.000000
vt 0.875000 0.750000
vt 0.375000 0.250000
vt 0.125000 0.500000
vt 0.625000 0.250000
vt 0.875000 0.500000
vt 0.375000 0.750000
vt 0.625000 0.750000
vt 0.375000 0.500000
vt 0.625000 0.500000
s 0
usemtl Wood
f 25/43/19 26/46/19 28/51/19 27/49/19
f 27/49/20 28/51/20 32/56/20 31/55/20
f 31/55/21 32/56/21 30/54/21 29/53/21
f 29/53/22 30/54/22 26/47/22 25/44/22
f 27/50/23 31/55/23 29/53/23 25/45/23
f 32/56/24 28/52/24 26/48/24 30/54/24
o Cube.004
v -0.450000 -0.350044 -0.350305
v -0.450000 0.349956 -0.349695
v -0.450000 -0.349956 -0.450305
v -0.450000 0.350044 -0.449695
v -0.350000 -0.350044 -0.350305
v -0.350000 0.349956 -0.349695
v -0.350000 -0.349956 -0.450305
v -0.350000 0.350044 -0.449695
vn -1.0000 -0.0000 -0.0000
vn -0.0000 0.0009 -1.0000
vn 1.0000 -0.0000 -0.0000
vn -0.0000 -0.0009 1.0000
vn -0.0000 -1.0000 -0.0009
vn -0.0000 1.0000 0.0009
vt 0.375000 0.000000
vt 0.375000 1.000000
vt 0.125000 0.750000
vt 0.625000 0.000000
vt 0.625000 1.000000
vt 0.875000 0.750000
vt 0.375000 0.250000
vt 0.125000 0.500000
vt 0.625000 0.250000
vt 0.875000 0.500000
vt 0.375000 0.750000
vt 0.625000 0.750000
vt 0.375000 0.500000
vt 0.625000 0.500000
s 0
usemtl Wood
f 33/57/25 34/60/25 36/65/25 35/63/25
f 35/63/26 36/65/26 40/70/26 39/69/26
f 39/69/27 40/70/27 38/68/27 37/67/27
f 37/67/28 38/68/28 34/61/28 33/58/28
f 35/64/29 39/69/29 37/67/29 33/59/29
f 40/70/30 36/66/30 34/62/30 38/68/30
o 
v 0.000000 0.000000 0.000000
