# Blender 3.4.1
# www.blender.org
mtllib trash-can.mtl
o Cylinder
v 0.000000 -0.351294 -0.400095
v -0.000000 0.357598 -0.255046
v 0.078055 -0.351294 -0.392407
v 0.049757 0.357598 -0.250145
v 0.153110 -0.351294 -0.369640
v 0.097602 0.357598 -0.235632
v 0.222281 -0.351294 -0.332667
v 0.141696 0.357598 -0.212063
v 0.282910 -0.351294 -0.282910
v 0.180345 0.357598 -0.180345
v 0.332667 -0.351294 -0.222281
v 0.212063 0.357598 -0.141696
v 0.369640 -0.351294 -0.153110
v 0.235632 0.357598 -0.097602
v 0.392407 -0.351294 -0.078055
v 0.250145 0.357598 -0.049757
v 0.400095 -0.351294 0.000000
v 0.255046 0.357598 0.000000
v 0.392407 -0.351294 0.078055
v 0.250145 0.357598 0.049757
v 0.369640 -0.351294 0.153110
v 0.235632 0.357598 0.097602
v 0.332667 -0.351294 0.222281
v 0.212063 0.357598 0.141696
v 0.282910 -0.351294 0.282910
v 0.180345 0.357598 0.180345
v 0.222281 -0.351294 0.332667
v 0.141696 0.357598 0.212063
v 0.153110 -0.351294 0.369640
v 0.097602 0.357598 0.235632
v 0.078055 -0.351294 0.392407
v 0.049757 0.357598 0.250145
v 0.000000 -0.351294 0.400095
v -0.000000 0.357598 0.255046
v -0.078055 -0.351294 0.392407
v -0.049757 0.357598 0.250145
v -0.153110 -0.351294 0.369640
v -0.097602 0.357598 0.235632
v -0.222281 -0.351294 0.332667
v -0.141696 0.357598 0.212063
v -0.282910 -0.351294 0.282910
v -0.180345 0.357598 0.180345
v -0.332667 -0.351294 0.222281
v -0.212063 0.357598 0.141696
v -0.369640 -0.351294 0.153110
v -0.235632 0.357598 0.097602
v -0.392407 -0.351294 0.078055
v -0.250145 0.357598 0.049757
v -0.400095 -0.351294 0.000000
v -0.255046 0.357598 0.000000
v -0.392407 -0.351294 -0.078055
v -0.250145 0.357598 -0.049757
v -0.369640 -0.351294 -0.153110
v -0.235632 0.357598 -0.097602
v -0.332667 -0.351294 -0.222281
v -0.212063 0.357598 -0.141696
v -0.282910 -0.351294 -0.282910
v -0.180345 0.357598 -0.180345
v -0.222281 -0.351294 -0.332667
v -0.141696 0.357598 -0.212063
v -0.153110 -0.351294 -0.369640
v -0.097602 0.357598 -0.235632
v -0.078055 -0.351294 -0.392407
v -0.049757 0.357598 -0.250145
v 0.078055 0.351294 -0.392407
v 0.000000 0.351294 -0.400095
v 0.153110 0.351294 -0.369640
v 0.222281 0.351294 -0.332667
v 0.282910 0.351294 -0.282910
v 0.332667 0.351294 -0.222281
v 0.369640 0.351294 -0.153110
v 0.392407 0.351294 -0.078055
v 0.400095 0.351294 0.000000
v 0.392407 0.351294 0.078055
v 0.369640 0.351294 0.153110
v 0.332667 0.351294 0.222281
v 0.282910 0.351294 0.282910
v 0.222281 0.351294 0.332667
v 0.153110 0.351294 0.369640
v 0.078055 0.351294 0.392407
v 0.000000 0.351294 0.400095
v -0.078055 0.351294 0.392407
v -0.153110 0.351294 0.369640
v -0.222281 0.351294 0.332667
v -0.282910 0.351294 0.282910
v -0.332667 0.351294 0.222281
v -0.369640 0.351294 0.153110
v -0.392407 0.351294 0.078055
v -0.400095 0.351294 0.000000
v -0.392407 0.351294 -0.078055
v -0.369640 0.351294 -0.153110
v -0.332667 0.351294 -0.222281
v -0.282910 0.351294 -0.282910
v -0.222281 0.351294 -0.332667
v -0.153110 0.351294 -0.369640
v -0.078055 0.351294 -0.392407
v -0.000000 -0.172835 -0.275774
v 0.053801 -0.172835 -0.270475
v 0.105534 -0.172835 -0.254782
v 0.153212 -0.172835 -0.229298
v 0.195002 -0.172835 -0.195002
v 0.229298 -0.172835 -0.153212
v 0.254782 -0.172835 -0.105534
v 0.270475 -0.172835 -0.053801
v 0.275774 -0.172835 0.000000
v 0.270475 -0.172835 0.053801
v 0.254782 -0.172835 0.105534
v 0.229298 -0.172835 0.153212
v 0.195002 -0.172835 0.195002
v 0.153212 -0.172835 0.229298
v 0.105534 -0.172835 0.254782
v 0.053801 -0.172835 0.270475
v -0.000000 -0.172835 0.275774
v -0.053801 -0.172835 0.270475
v -0.105534 -0.172835 0.254782
v -0.153212 -0.172835 0.229298
v -0.195002 -0.172835 0.195002
v -0.229298 -0.172835 0.153212
v -0.254782 -0.172835 0.105534
v -0.270475 -0.172835 0.053801
v -0.275774 -0.172835 0.000000
v -0.270475 -0.172835 -0.053801
v -0.254782 -0.172835 -0.105534
v -0.229298 -0.172835 -0.153212
v -0.195002 -0.172835 -0.195002
v -0.153212 -0.172835 -0.229298
v -0.105534 -0.172835 -0.254782
v -0.053801 -0.172835 -0.270475
v -0.000000 0.448706 -0.327570
v 0.063906 0.448706 -0.321276
v 0.125356 0.448706 -0.302636
v 0.181988 0.448706 -0.272365
v 0.231627 0.448706 -0.231627
v 0.272365 0.448706 -0.181988
v 0.302636 0.448706 -0.125356
v 0.321276 0.448706 -0.063906
v 0.327570 0.448706 0.000000
v 0.321276 0.448706 0.063906
v 0.302636 0.448706 0.125356
v 0.272365 0.448706 0.181988
v 0.231627 0.448706 0.231627
v 0.181988 0.448706 0.272365
v 0.125356 0.448706 0.302636
v 0.063906 0.448706 0.321276
v -0.000000 0.448706 0.327570
v -0.063906 0.448706 0.321276
v -0.125356 0.448706 0.302636
v -0.181988 0.448706 0.272365
v -0.231627 0.448706 0.231627
v -0.272365 0.448706 0.181988
v -0.302636 0.448706 0.125356
v -0.321276 0.448706 0.063906
v -0.327570 0.448706 0.000000
v -0.321276 0.448706 -0.063906
v -0.302636 0.448706 -0.125356
v -0.272365 0.448706 -0.181988
v -0.231627 0.448706 -0.231627
v -0.181988 0.448706 -0.272365
v -0.125356 0.448706 -0.302636
v -0.063906 0.448706 -0.321276
vn 0.0980 -0.0000 -0.9952
vn 0.2903 -0.0000 -0.9569
vn 0.4714 -0.0000 -0.8819
vn 0.6344 -0.0000 -0.7730
vn 0.7730 -0.0000 -0.6344
vn 0.8819 -0.0000 -0.4714
vn 0.9569 -0.0000 -0.2903
vn 0.9952 -0.0000 -0.0980
vn 0.9952 -0.0000 0.0980
vn 0.9569 -0.0000 0.2903
vn 0.8819 -0.0000 0.4714
vn 0.7730 -0.0000 0.6344
vn 0.6344 -0.0000 0.7730
vn 0.4714 -0.0000 0.8819
vn 0.2903 -0.0000 0.9569
vn 0.0980 -0.0000 0.9952
vn -0.0980 -0.0000 0.9952
vn -0.2903 -0.0000 0.9569
vn -0.4714 -0.0000 0.8819
vn -0.6344 -0.0000 0.7730
vn -0.7730 -0.0000 0.6344
vn -0.8819 -0.0000 0.4714
vn -0.9569 -0.0000 0.2903
vn -0.9952 -0.0000 0.0980
vn -0.9952 -0.0000 -0.0980
vn -0.9569 -0.0000 -0.2903
vn -0.8819 -0.0000 -0.4714
vn -0.7730 -0.0000 -0.6344
vn -0.6344 -0.0000 -0.7730
vn -0.4714 -0.0000 -0.8819
vn -0.4710 -0.0389 -0.8813
vn -0.2903 -0.0000 -0.9569
vn -0.0980 -0.0000 -0.9952
vn -0.0000 -1.0000 -0.0000
vn 0.0788 0.5953 -0.7996
vn 0.2332 0.5953 -0.7689
vn 0.3788 0.5953 -0.7086
vn 0.5097 0.5953 -0.6211
vn 0.6211 0.5953 -0.5097
vn 0.7086 0.5953 -0.3788
vn 0.7689 0.5953 -0.2332
vn 0.7996 0.5953 -0.0788
vn 0.7996 0.5953 0.0788
vn 0.7689 0.5953 0.2332
vn 0.7086 0.5953 0.3788
vn 0.6211 0.5953 0.5097
vn 0.5097 0.5953 0.6211
vn 0.3788 0.5953 0.7086
vn 0.2332 0.5953 0.7689
vn 0.0788 0.5953 0.7996
vn -0.0788 0.5953 0.7996
vn -0.2332 0.5953 0.7689
vn -0.3788 0.5953 0.7086
vn -0.5097 0.5953 0.6211
vn -0.6211 0.5953 0.5097
vn -0.7086 0.5953 0.3788
vn -0.7689 0.5953 0.2332
vn -0.7996 0.5953 0.0788
vn -0.7996 0.5953 -0.0788
vn -0.7689 0.5953 -0.2332
vn -0.7086 0.5953 -0.3788
vn -0.6211 0.5953 -0.5097
vn -0.5097 0.5953 -0.6211
vn -0.3788 0.5953 -0.7086
vn -0.2332 0.5953 -0.7689
vn -0.0788 0.5953 -0.7996
vn -0.0000 1.0000 -0.0000
vn -0.0979 -0.0389 0.9944
vn 0.7724 -0.0389 0.6339
vn -0.2901 -0.0389 -0.9562
vn -0.2901 -0.0389 0.9562
vn 0.6339 -0.0389 0.7724
vn -0.0979 -0.0389 -0.9944
vn -0.4710 -0.0389 0.8813
vn 0.4710 -0.0389 0.8813
vn 0.0979 -0.0389 -0.9944
vn -0.6339 -0.0389 0.7724
vn 0.2901 -0.0389 0.9562
vn 0.2901 -0.0389 -0.9562
vn -0.7724 -0.0389 0.6339
vn 0.0979 -0.0389 0.9944
vn 0.4710 -0.0389 -0.8813
vn -0.8813 -0.0389 0.4710
vn 0.6339 -0.0389 -0.7724
vn -0.9562 -0.0389 0.2901
vn 0.7724 -0.0389 -0.6339
vn -0.9944 -0.0389 0.0979
vn 0.8813 -0.0389 -0.4710
vn -0.9944 -0.0389 -0.0979
vn 0.9562 -0.0389 -0.2901
vn -0.9562 -0.0389 -0.2901
vn 0.9944 -0.0389 -0.0979
vn -0.8813 -0.0389 -0.4710
vn 0.9944 -0.0389 0.0979
vn -0.7724 -0.0389 -0.6339
vn 0.9562 -0.0389 0.2901
vn -0.6339 -0.0389 -0.7724
vn 0.8813 -0.0389 0.4710
vn 0.0768 0.6210 0.7801
vn 0.2275 0.6210 0.7501
vn 0.3695 0.6210 0.6913
vn 0.4973 0.6210 0.6059
vn 0.6059 0.6210 0.4973
vn 0.6913 0.6210 0.3695
vn 0.7501 0.6210 0.2275
vn 0.7801 0.6210 0.0768
vn 0.7801 0.6210 -0.0768
vn 0.7501 0.6210 -0.2275
vn 0.6913 0.6210 -0.3695
vn 0.6059 0.6210 -0.4973
vn 0.4973 0.6210 -0.6059
vn 0.3695 0.6210 -0.6913
vn 0.2275 0.6210 -0.7501
vn 0.0768 0.6210 -0.7801
vn -0.0768 0.6210 -0.7801
vn -0.2275 0.6210 -0.7501
vn -0.3695 0.6210 -0.6913
vn -0.4973 0.6210 -0.6059
vn -0.6059 0.6210 -0.4973
vn -0.6913 0.6210 -0.3695
vn -0.7501 0.6210 -0.2275
vn -0.7801 0.6210 -0.0768
vn -0.7801 0.6210 0.0768
vn -0.7501 0.6210 0.2275
vn -0.6913 0.6210 0.3695
vn -0.6059 0.6210 0.4973
vn -0.4973 0.6210 0.6059
vn -0.3695 0.6210 0.6913
vn -0.2275 0.6210 0.7501
vn -0.0768 0.6210 0.7801
vt 1.000000 0.500000
vt 0.000000 0.500000
vt 0.750000 0.490000
vt 0.250000 0.415425
vt 0.968750 0.500000
vt 0.796822 0.485388
vt 0.282273 0.412247
vt 0.937500 0.500000
vt 0.841844 0.471731
vt 0.313306 0.402833
vt 0.906250 0.500000
vt 0.883337 0.449553
vt 0.341905 0.387546
vt 0.875000 0.500000
vt 0.919706 0.419706
vt 0.366973 0.366973
vt 0.843750 0.500000
vt 0.949553 0.383337
vt 0.387546 0.341905
vt 0.812500 0.500000
vt 0.971731 0.341844
vt 0.402833 0.313306
vt 0.781250 0.500000
vt 0.985388 0.296822
vt 0.412247 0.282273
vt 0.750000 0.500000
vt 0.990000 0.250000
vt 0.415425 0.250000
vt 0.718750 0.500000
vt 0.985388 0.203178
vt 0.412247 0.217727
vt 0.687500 0.500000
vt 0.971731 0.158156
vt 0.402833 0.186694
vt 0.656250 0.500000
vt 0.949553 0.116663
vt 0.387546 0.158095
vt 0.625000 0.500000
vt 0.919706 0.080294
vt 0.366973 0.133027
vt 0.593750 0.500000
vt 0.883337 0.050447
vt 0.341905 0.112454
vt 0.562500 0.500000
vt 0.841844 0.028269
vt 0.313305 0.097167
vt 0.531250 0.500000
vt 0.796822 0.014612
vt 0.282273 0.087753
vt 0.500000 0.500000
vt 0.750000 0.010000
vt 0.250000 0.084575
vt 0.468750 0.500000
vt 0.703178 0.014612
vt 0.217727 0.087753
vt 0.437500 0.500000
vt 0.658156 0.028269
vt 0.186694 0.097167
vt 0.406250 0.500000
vt 0.616663 0.050447
vt 0.158095 0.112454
vt 0.375000 0.500000
vt 0.580294 0.080294
vt 0.133027 0.133027
vt 0.343750 0.500000
vt 0.550447 0.116663
vt 0.112454 0.158095
vt 0.312500 0.500000
vt 0.528269 0.158156
vt 0.097167 0.186694
vt 0.281250 0.500000
vt 0.514612 0.203178
vt 0.087753 0.217727
vt 0.250000 0.500000
vt 0.510000 0.250000
vt 0.084575 0.250000
vt 0.218750 0.500000
vt 0.514612 0.296822
vt 0.087753 0.282273
vt 0.187500 0.500000
vt 0.528269 0.341844
vt 0.097167 0.313305
vt 0.156250 0.500000
vt 0.550447 0.383337
vt 0.112454 0.341905
vt 0.125000 0.500000
vt 0.580294 0.419706
vt 0.133027 0.366973
vt 0.093750 0.500000
vt 0.616663 0.449553
vt 0.158095 0.387546
vt 0.062500 0.500000
vt 0.658156 0.471731
vt 0.186694 0.402833
vt 0.031250 0.500000
vt 0.703178 0.485388
vt 0.217727 0.412247
vt 0.968750 1.000000
vt 0.296822 0.485388
vt 1.000000 1.000000
vt 0.000000 1.000000
vt 0.250000 0.490000
vt 0.937500 1.000000
vt 0.341844 0.471731
vt 0.906250 1.000000
vt 0.383337 0.449553
vt 0.875000 1.000000
vt 0.419706 0.419706
vt 0.843750 1.000000
vt 0.449553 0.383337
vt 0.812500 1.000000
vt 0.471731 0.341844
vt 0.781250 1.000000
vt 0.485388 0.296822
vt 0.750000 1.000000
vt 0.490000 0.250000
vt 0.718750 1.000000
vt 0.485388 0.203178
vt 0.687500 1.000000
vt 0.471731 0.158156
vt 0.656250 1.000000
vt 0.449553 0.116663
vt 0.625000 1.000000
vt 0.419706 0.080294
vt 0.593750 1.000000
vt 0.383337 0.050447
vt 0.562500 1.000000
vt 0.341844 0.028269
vt 0.531250 1.000000
vt 0.296822 0.014612
vt 0.500000 1.000000
vt 0.250000 0.010000
vt 0.468750 1.000000
vt 0.203178 0.014612
vt 0.437500 1.000000
vt 0.158156 0.028269
vt 0.406250 1.000000
vt 0.116663 0.050447
vt 0.375000 1.000000
vt 0.080294 0.080294
vt 0.343750 1.000000
vt 0.050447 0.116663
vt 0.312500 1.000000
vt 0.028269 0.158156
vt 0.281250 1.000000
vt 0.014612 0.203178
vt 0.250000 1.000000
vt 0.010000 0.250000
vt 0.218750 1.000000
vt 0.014612 0.296822
vt 0.187500 1.000000
vt 0.028269 0.341844
vt 0.156250 1.000000
vt 0.050447 0.383337
vt 0.125000 1.000000
vt 0.080294 0.419706
vt 0.093750 1.000000
vt 0.116663 0.449553
vt 0.062500 1.000000
vt 0.158156 0.471731
vt 0.031250 1.000000
vt 0.203178 0.485388
vt 0.250000 0.415425
vt 0.282273 0.412247
vt 0.313306 0.402833
vt 0.341905 0.387546
vt 0.366973 0.366973
vt 0.387546 0.341905
vt 0.402833 0.313306
vt 0.412247 0.282273
vt 0.415425 0.250000
vt 0.412247 0.217727
vt 0.402833 0.186694
vt 0.387546 0.158095
vt 0.366973 0.133027
vt 0.341905 0.112454
vt 0.313305 0.097167
vt 0.282273 0.087753
vt 0.250000 0.084575
vt 0.217727 0.087753
vt 0.186694 0.097167
vt 0.158095 0.112454
vt 0.133027 0.133027
vt 0.112454 0.158095
vt 0.097167 0.186694
vt 0.087753 0.217727
vt 0.084575 0.250000
vt 0.087753 0.282273
vt 0.097167 0.313305
vt 0.112454 0.341905
vt 0.133027 0.366973
vt 0.158095 0.387546
vt 0.186694 0.402833
vt 0.217727 0.412247
vt 0.250000 0.452713
vt 0.289547 0.448818
vt 0.327575 0.437282
vt 0.362621 0.418549
vt 0.393339 0.393339
vt 0.418549 0.362621
vt 0.437282 0.327575
vt 0.448818 0.289547
vt 0.452713 0.250000
vt 0.448818 0.210453
vt 0.437282 0.172425
vt 0.418549 0.137379
vt 0.393339 0.106661
vt 0.362621 0.081451
vt 0.327575 0.062718
vt 0.289547 0.051182
vt 0.250000 0.047287
vt 0.210453 0.051182
vt 0.172425 0.062718
vt 0.137379 0.081451
vt 0.106661 0.106661
vt 0.081451 0.137379
vt 0.062718 0.172425
vt 0.051182 0.210453
vt 0.047287 0.250000
vt 0.051182 0.289547
vt 0.062718 0.327575
vt 0.081451 0.362621
vt 0.106661 0.393339
vt 0.137379 0.418549
vt 0.172425 0.437282
vt 0.210453 0.448818
s 0
usemtl Material.001
f 1/1/1 66/100/1 65/98/1 3/5/1
f 3/5/2 65/98/2 67/103/2 5/8/2
f 5/8/3 67/103/3 68/105/3 7/11/3
f 7/11/4 68/105/4 69/107/4 9/14/4
f 9/14/5 69/107/5 70/109/5 11/17/5
f 11/17/6 70/109/6 71/111/6 13/20/6
f 13/20/7 71/111/7 72/113/7 15/23/7
f 15/23/8 72/113/8 73/115/8 17/26/8
f 17/26/9 73/115/9 74/117/9 19/29/9
f 19/29/10 74/117/10 75/119/10 21/32/10
f 21/32/11 75/119/11 76/121/11 23/35/11
f 23/35/12 76/121/12 77/123/12 25/38/12
f 25/38/13 77/123/13 78/125/13 27/41/13
f 27/41/14 78/125/14 79/127/14 29/44/14
f 29/44/15 79/127/15 80/129/15 31/47/15
f 31/47/16 80/129/16 81/131/16 33/50/16
f 33/50/17 81/131/17 82/133/17 35/53/17
f 35/53/18 82/133/18 83/135/18 37/56/18
f 37/56/19 83/135/19 84/137/19 39/59/19
f 39/59/20 84/137/20 85/139/20 41/62/20
f 41/62/21 85/139/21 86/141/21 43/65/21
f 43/65/22 86/141/22 87/143/22 45/68/22
f 45/68/23 87/143/23 88/145/23 47/71/23
f 47/71/24 88/145/24 89/147/24 49/74/24
f 49/74/25 89/147/25 90/149/25 51/77/25
f 51/77/26 90/149/26 91/151/26 53/80/26
f 53/80/27 91/151/27 92/153/27 55/83/27
f 55/83/28 92/153/28 93/155/28 57/86/28
f 57/86/29 93/155/29 94/157/29 59/89/29
f 59/89/30 94/157/30 95/159/30 61/92/30
f 30/46/31 28/43/31 110/176/31 111/177/31
f 61/92/32 95/159/32 96/161/32 63/95/32
f 63/95/33 96/161/33 66/101/33 1/2/33
f 1/3/34 3/6/34 5/9/34 7/12/34 9/15/34 11/18/34 13/21/34 15/24/34 17/27/34 19/30/34 21/33/34 23/36/34 25/39/34 27/42/34 29/45/34 31/48/34 33/51/34 35/54/34 37/57/34 39/60/34 41/63/34 43/66/34 45/69/34 47/72/34 49/75/34 51/78/34 53/81/34 55/84/34 57/87/34 59/90/34 61/93/34 63/96/34
f 129/195/35 130/196/35 65/99/35 66/102/35
f 130/196/36 131/197/36 67/104/36 65/99/36
f 131/197/37 132/198/37 68/106/37 67/104/37
f 132/198/38 133/199/38 69/108/38 68/106/38
f 133/199/39 134/200/39 70/110/39 69/108/39
f 134/200/40 135/201/40 71/112/40 70/110/40
f 135/201/41 136/202/41 72/114/41 71/112/41
f 136/202/42 137/203/42 73/116/42 72/114/42
f 137/203/43 138/204/43 74/118/43 73/116/43
f 138/204/44 139/205/44 75/120/44 74/118/44
f 139/205/45 140/206/45 76/122/45 75/120/45
f 140/206/46 141/207/46 77/124/46 76/122/46
f 141/207/47 142/208/47 78/126/47 77/124/47
f 142/208/48 143/209/48 79/128/48 78/126/48
f 143/209/49 144/210/49 80/130/49 79/128/49
f 144/210/50 145/211/50 81/132/50 80/130/50
f 145/211/51 146/212/51 82/134/51 81/132/51
f 146/212/52 147/213/52 83/136/52 82/134/52
f 147/213/53 148/214/53 84/138/53 83/136/53
f 148/214/54 149/215/54 85/140/54 84/138/54
f 149/215/55 150/216/55 86/142/55 85/140/55
f 150/216/56 151/217/56 87/144/56 86/142/56
f 151/217/57 152/218/57 88/146/57 87/144/57
f 152/218/58 153/219/58 89/148/58 88/146/58
f 153/219/59 154/220/59 90/150/59 89/148/59
f 154/220/60 155/221/60 91/152/60 90/150/60
f 155/221/61 156/222/61 92/154/61 91/152/61
f 156/222/62 157/223/62 93/156/62 92/154/62
f 157/223/63 158/224/63 94/158/63 93/156/63
f 158/224/64 159/225/64 95/160/64 94/158/64
f 159/225/65 160/226/65 96/162/65 95/160/65
f 160/226/66 129/195/66 66/102/66 96/162/66
f 98/164/67 97/163/67 128/194/67 127/193/67 126/192/67 125/191/67 124/190/67 123/189/67 122/188/67 121/187/67 120/186/67 119/185/67 118/184/67 117/183/67 116/182/67 115/181/67 114/180/67 113/179/67 112/178/67 111/177/67 110/176/67 109/175/67 108/174/67 107/173/67 106/172/67 105/171/67 104/170/67 103/169/67 102/168/67 101/167/67 100/166/67 99/165/67
f 4/7/68 2/4/68 97/163/68 98/164/68
f 58/88/69 56/85/69 124/190/69 125/191/69
f 32/49/70 30/46/70 111/177/70 112/178/70
f 6/10/71 4/7/71 98/164/71 99/165/71
f 60/91/72 58/88/72 125/191/72 126/192/72
f 34/52/73 32/49/73 112/178/73 113/179/73
f 8/13/74 6/10/74 99/165/74 100/166/74
f 62/94/75 60/91/75 126/192/75 127/193/75
f 36/55/76 34/52/76 113/179/76 114/180/76
f 10/16/77 8/13/77 100/166/77 101/167/77
f 64/97/78 62/94/78 127/193/78 128/194/78
f 38/58/79 36/55/79 114/180/79 115/181/79
f 12/19/80 10/16/80 101/167/80 102/168/80
f 2/4/81 64/97/81 128/194/81 97/163/81
f 40/61/82 38/58/82 115/181/82 116/182/82
f 14/22/83 12/19/83 102/168/83 103/169/83
f 42/64/84 40/61/84 116/182/84 117/183/84
f 16/25/85 14/22/85 103/169/85 104/170/85
f 44/67/86 42/64/86 117/183/86 118/184/86
f 18/28/87 16/25/87 104/170/87 105/171/87
f 46/70/88 44/67/88 118/184/88 119/185/88
f 20/31/89 18/28/89 105/171/89 106/172/89
f 48/73/90 46/70/90 119/185/90 120/186/90
f 22/34/91 20/31/91 106/172/91 107/173/91
f 50/76/92 48/73/92 120/186/92 121/187/92
f 24/37/93 22/34/93 107/173/93 108/174/93
f 52/79/94 50/76/94 121/187/94 122/188/94
f 26/40/95 24/37/95 108/174/95 109/175/95
f 54/82/96 52/79/96 122/188/96 123/189/96
f 28/43/97 26/40/97 109/175/97 110/176/97
f 56/85/98 54/82/98 123/189/98 124/190/98
f 64/97/99 2/4/99 129/195/99 160/226/99
f 62/94/100 64/97/100 160/226/100 159/225/100
f 60/91/101 62/94/101 159/225/101 158/224/101
f 58/88/102 60/91/102 158/224/102 157/223/102
f 56/85/103 58/88/103 157/223/103 156/222/103
f 54/82/104 56/85/104 156/222/104 155/221/104
f 52/79/105 54/82/105 155/221/105 154/220/105
f 50/76/106 52/79/106 154/220/106 153/219/106
f 48/73/107 50/76/107 153/219/107 152/218/107
f 46/70/108 48/73/108 152/218/108 151/217/108
f 44/67/109 46/70/109 151/217/109 150/216/109
f 42/64/110 44/67/110 150/216/110 149/215/110
f 40/61/111 42/64/111 149/215/111 148/214/111
f 38/58/112 40/61/112 148/214/112 147/213/112
f 36/55/113 38/58/113 147/213/113 146/212/113
f 34/52/114 36/55/114 146/212/114 145/211/114
f 32/49/115 34/52/115 145/211/115 144/210/115
f 30/46/116 32/49/116 144/210/116 143/209/116
f 28/43/117 30/46/117 143/209/117 142/208/117
f 26/40/118 28/43/118 142/208/118 141/207/118
f 24/37/119 26/40/119 141/207/119 140/206/119
f 22/34/120 24/37/120 140/206/120 139/205/120
f 20/31/121 22/34/121 139/205/121 138/204/121
f 18/28/122 20/31/122 138/204/122 137/203/122
f 16/25/123 18/28/123 137/203/123 136/202/123
f 14/22/124 16/25/124 136/202/124 135/201/124
f 12/19/125 14/22/125 135/201/125 134/200/125
f 10/16/126 12/19/126 134/200/126 133/199/126
f 8/13/127 10/16/127 133/199/127 132/198/127
f 6/10/128 8/13/128 132/198/128 131/197/128
f 4/7/129 6/10/129 131/197/129 130/196/129
f 2/4/130 4/7/130 130/196/130 129/195/130
